<?xml version="1.0" encoding="utf-8"?>
<!-- Generator: Adobe Illustrator 22.0.0, SVG Export Plug-In . SVG Version: 6.00 Build 0)  -->
<svg version="1.1" id="Шар_1" xmlns="http://www.w3.org/2000/svg" xmlns:xlink="http://www.w3.org/1999/xlink" x="0px" y="0px"
	 viewBox="0 0 351.476 39.891" style="enable-background:new 0 0 351.476 39.891;" xml:space="preserve">
<style type="text/css">
	.st0{fill:#1F2833;}
	.st1{fill:#FFFFFF;}
	.st2{display:none;fill:#C3073F;}
	.st3{fill:#C3073F;}
</style>
<path class="st0" d="M0,39.891c0,0,67.95-32.6,183.23-31.924c96.745,0.567,168.246,31.924,168.246,31.924V0H183.781H0V39.891z"/>
<path class="st1" d="M351.476,33.809l-0.356,6.006c0,0-85.242-31.858-175.503-31.858S0,39.891,0,39.891v-6.082
	C52.447,18.773,112.108,7.956,175.617,7.956C239.131,7.956,299.026,18.771,351.476,33.809L351.476,33.809z"/>
<g>
	<path class="st2" d="M183.453-0.142v9.52c-23.28,0.01-37.49,1.15-56.53,4.89c-3.24,0.64-6.97,1.15-8.07-1.83
		c-1.09-2.98,0.58-5.65,3.86-6.63C130.463,3.508,162.114-0.112,183.453-0.142z"/>
	<g>
		<path class="st3" d="M183.522,8.681c18.165,0,37.454,1.999,56.405,6.169c3.225,0.713,6.942,1.307,8.109-1.647
			c1.157-2.955-0.452-5.662-3.709-6.716C236.631,4.012,209.061,0,183.781,0s-52.852,3.974-60.547,6.449
			c-3.257,1.054-4.866,3.761-3.709,6.716c1.167,2.954,4.884,2.36,8.109,1.647C146.585,10.642,165.357,8.681,183.522,8.681z"/>
	</g>
</g>
</svg>
