<?xml version="1.0" encoding="utf-8"?>
<!-- Generator: Adobe Illustrator 22.0.0, SVG Export Plug-In . SVG Version: 6.00 Build 0)  -->
<svg version="1.1" id="Шар_1" xmlns="http://www.w3.org/2000/svg" xmlns:xlink="http://www.w3.org/1999/xlink" x="0px" y="0px"
	 viewBox="0 0 128 100" style="enable-background:new 0 0 128 100;" xml:space="preserve">
<style type="text/css">
	.st0{fill:#C3073F;}
	.st1{fill:#FFFFFF;}
	.st2{display:none;}
</style>
<path class="st0" d="M44.917,99.218L5.359,99.094l-0.725-67.36l42.918,11.079c-3.19,4.9,0.072,0.141-3.208,4.872
	c-6.6,9.54-12.05,19.7-11.29,32.28C33.604,89.074,38.624,95.306,44.917,99.218z"/>
<path class="st0" d="M122.75,99l-39.426,0.147C88.655,95.63,95.35,88.997,95.35,79.87c0-19.807-11.412-31.912-15.407-37.154
	l43.932-11.247L122.75,99z"/>
<path class="st1" d="M18,24c-1.105,0-2,0.895-2,2s0.895,2,2,2h4c1.105,0,2-0.895,2-2s-0.895-2-2-2H18z M110,28c1.105,0,2-0.895,2-2
	s-0.895-2-2-2h-4c-1.105,0-2,0.895-2,2s0.895,2,2,2H110z M18,68c-1.105,0-2,0.895-2,2s0.895,2,2,2h4c1.105,0,2-0.895,2-2
	s-0.895-2-2-2H18z M110,72c1.105,0,2-0.895,2-2s-0.895-2-2-2h-4c-1.105,0-2,0.895-2,2s0.895,2,2,2H110z"/>
<path class="st1" d="M122,13H88V6c-0.004-3.312-2.688-5.996-6-6H46c-3.312,0.004-5.996,2.688-6,6v7H6
	c-3.309,0.001-5.993,2.679-6,5.988v10.853c0.002,1.702,0.729,3.322,2,4.453V94c0.004,3.312,2.688,5.996,6,6h38.262
	c-2.015-1.096-3.885-2.44-5.566-4H8c-1.104-0.001-1.999-0.896-2-2V36.024l39.429,10.145c0.869-1.166,1.761-2.321,2.64-3.451
	L5.499,31.766C4.618,31.541,4.002,30.749,4,29.841V18.988c0.004-1.101,0.899-1.99,2-1.988h116c1.101-0.002,1.996,0.887,2,1.988
	v10.853c-0.002,0.908-0.618,1.7-1.499,1.925h0L79.762,42.762c0.92,1.096,1.854,2.225,2.777,3.415L122,36.024V94
	c-0.001,1.104-0.896,1.999-2,2H87.311c-1.678,1.559-3.544,2.903-5.554,4H120c3.312-0.004,5.996-2.688,6-6V34.294
	c1.271-1.132,1.998-2.752,2-4.453V18.988C127.993,15.679,125.309,13.001,122,13z M44,13V6c0.001-1.104,0.896-1.999,2-2h36
	c1.104,0.001,1.999,0.896,2,2v7H44z"/>
<path class="st2" d="M90.937,79.336c0.675-11.155-4.159-20.159-10.009-28.613c-3.123-4.512-6.827-7.931-9.721-12.629
	c0,0,1.266-7.357,2.754-10.623c0.535-1.174,1.653-2.235,1.629-3.63c-0.046-0.998-0.78-1.83-1.765-1.999
	c-0.16-0.032-0.323-0.048-0.486-0.047c-0.781,0.043-1.537,0.291-2.192,0.718c-1.308,0.779-2.3,1.758-3.76,1.758
	c-0.272-0.001-0.544-0.033-0.809-0.095c-0.114-0.026-0.227-0.057-0.339-0.09c-1.232-0.365-1.594-2.235-2.646-2.875
	c-0.206-0.133-0.445-0.206-0.69-0.211c-1.126,0-1.984,1.686-2.762,2.519c-0.559,0.707-1.388,1.147-2.286,1.215
	c-0.38-0.005-0.754-0.095-1.094-0.265c-1.077-0.515-1.864-1.587-3.005-2.017c-0.194-0.074-0.4-0.111-0.608-0.112
	c-0.83,0.005-1.544,0.588-1.716,1.4c-0.275,1.269,0.73,2.39,1.382,3.35c0,0,2.212,2.256,3.651,10.956
	c-2.826,4.336-6.492,8.482-9.393,12.676c-5.849,8.454-10.686,17.459-10.009,28.613c0.806,13.358,12.397,19.896,22.958,20.524
	c1.13,0.067,6.764,0.071,7.958,0C78.541,99.232,90.13,92.694,90.937,79.336z M62.775,26.546c0.653,0.64,1.451,1.112,2.327,1.375
	c0.193,0.057,0.388,0.109,0.584,0.154c0.558,0.129,1.129,0.195,1.702,0.196c0.718,0,1.432-0.108,2.118-0.32
	c-0.817,2.642-1.478,5.33-1.981,8.049h-7.359c-0.436-2.48-1.099-4.916-1.981-7.275C59.933,28.596,61.57,27.819,62.775,26.546z
	 M67.742,95.868c-1.223,0.072-7.484,0-7.484,0c-9.087-0.541-18.549-5.937-19.203-16.774c-0.62-10.217,4.106-18.58,9.306-26.095
	c1.237-1.787,2.62-3.566,4.084-5.45c1.829-2.352,3.72-4.785,5.371-7.317L59.967,40h7.716l0.118,0.191
	c1.706,2.654,3.608,5.176,5.692,7.545c1.475,1.758,2.868,3.417,4.145,5.263c5.199,7.513,9.924,15.875,9.306,26.096
	C86.29,89.931,76.828,95.327,67.742,95.868z"/>
<path class="st1" d="M90.937,79.336c0.675-11.155-4.159-20.159-10.009-28.613c-3.123-4.512-6.827-7.931-9.721-12.629
	c0,0,1.266-7.357,2.754-10.623c0.535-1.174,1.653-2.235,1.629-3.63c-0.046-0.998-0.78-1.83-1.765-1.999
	c-0.16-0.032-0.323-0.048-0.486-0.047c-0.781,0.043-1.537,0.291-2.192,0.718c-1.308,0.779-2.3,1.758-3.76,1.758
	c-0.272-0.001-0.544-0.033-0.809-0.095c-0.114-0.026-0.227-0.057-0.339-0.09c-1.232-0.365-1.594-2.235-2.646-2.875
	c-0.206-0.133-0.445-0.206-0.69-0.211c-1.126,0-1.984,1.686-2.762,2.519c-0.559,0.707-1.388,1.147-2.286,1.215
	c-0.38-0.005-0.754-0.095-1.094-0.265c-1.077-0.515-1.864-1.587-3.005-2.017c-0.194-0.074-0.4-0.111-0.608-0.112
	c-0.83,0.005-1.544,0.588-1.716,1.4c-0.275,1.269,0.73,2.39,1.382,3.35c0,0,2.212,2.256,3.651,10.956
	c-2.826,4.336-6.492,8.482-9.393,12.676c-5.849,8.454-10.686,17.459-10.009,28.613c0.806,13.358,12.397,19.896,22.958,20.524
	c1.13,0.067,6.764,0.071,7.958,0C78.541,99.232,90.13,92.694,90.937,79.336z M62.775,26.546c0.653,0.64,1.451,1.112,2.327,1.375
	c0.193,0.057,0.388,0.109,0.584,0.154c0.558,0.129,1.129,0.195,1.702,0.196c0.718,0,1.432-0.108,2.118-0.32
	c-0.817,2.642-1.478,5.33-1.981,8.049h-7.359c-0.436-2.48-1.099-4.916-1.981-7.275C59.933,28.596,61.57,27.819,62.775,26.546z
	 M67.742,95.868c-1.223,0.072-7.484,0-7.484,0c-9.087-0.541-18.549-5.937-19.203-16.774c-0.62-10.217,4.106-18.58,9.306-26.095
	c1.237-1.787,2.62-3.566,4.084-5.45c1.829-2.352,3.72-4.785,5.371-7.317L59.967,40h7.716l0.118,0.191
	c1.706,2.654,3.608,5.176,5.692,7.545c1.475,1.758,2.868,3.417,4.145,5.263c5.199,7.513,9.924,15.875,9.306,26.096
	C86.29,89.931,76.828,95.327,67.742,95.868z"/>
<path class="st1" d="M64.709,70.731c-1.905-0.55-3.549-1.025-4.277-2.245c-0.553-0.879-0.572-1.991-0.05-2.889
	c0.903-1.406,3.095-1.697,4.858-1.364c1.014,0.23,1.925,0.787,2.593,1.585c0.716,0.841,1.979,0.942,2.819,0.226
	s0.942-1.979,0.226-2.819c-1.258-1.491-2.978-2.518-4.887-2.92c-0.027-0.005-0.057-0.009-0.084-0.014V58c0-1.105-0.895-2-2-2
	s-2,0.895-2,2v2.308c-1.991,0.318-3.76,1.448-4.885,3.12c-1.352,2.175-1.36,4.926-0.023,7.109c1.535,2.572,4.226,3.351,6.6,4.036
	c2.441,0.706,3.844,1.177,4.307,2.638c0.256,1.228-0.46,2.451-1.657,2.829c-1.989,0.763-4.238,0.341-5.814-1.092
	c-0.825-0.735-2.089-0.662-2.824,0.163c-0.728,0.817-0.664,2.067,0.143,2.805c1.185,1.061,2.61,1.817,4.153,2.203V86
	c0,1.105,0.895,2,2,2s2-0.895,2-2v-1.72c0.664-0.114,1.312-0.305,1.931-0.568c3.101-1.167,4.789-4.516,3.882-7.702
	C70.588,72.432,67.328,71.489,64.709,70.731z"/>
</svg>
