<?xml version="1.0" encoding="utf-8"?>
<!-- Generator: Adobe Illustrator 22.0.0, SVG Export Plug-In . SVG Version: 6.00 Build 0)  -->
<svg version="1.1" id="Шар_1" xmlns="http://www.w3.org/2000/svg" xmlns:xlink="http://www.w3.org/1999/xlink" x="0px" y="0px"
	 viewBox="0 0 61.965 57.2" style="enable-background:new 0 0 61.965 57.2;" xml:space="preserve">
<style type="text/css">
	.st0{fill:#FFFFFF;}
</style>
<path class="st0" d="M27.465,28.5c-7.9,0-14.3-6.4-14.3-14.3S19.565,0,27.465,0s14.3,6.3,14.3,14.2S35.365,28.5,27.465,28.5z
	 M27.465,1.9c-6.8,0-12.3,5.5-12.3,12.3s5.5,12.4,12.3,12.4s12.3-5.5,12.3-12.3S34.365,1.9,27.465,1.9z"/>
<path class="st0" d="M27.465,55.3c-0.1,0-2.5-0.1-5.8-0.4c-3-0.3-7.6-0.9-11.6-1.9c-3.8-1.1-8.2-3.5-9.2-5.2c-2-3.2,0-6.7,0.7-7.9
	c4.5-7.4,18.4-12,18.9-12.1l0.5-0.2l6.7,5.1l6.3-5.1l0.5,0.2c0.3,0.1,6.1,2,11.5,5.3l-1,1.6c-4.4-2.7-9.1-4.5-10.6-5.1l-5.6,4.5
	l3.5,10.4l-4.2,6.7l-4.2-6.7l2.7-10.5l-6-4.6c-2.4,1.1-13.8,5.3-17.4,11.4c-1.5,2.5-1.7,4.4-0.8,5.9c0.7,1.1,4.3,3.4,8.2,4.5
	s8.3,1.7,11.3,1.8c3.3,0.3,5.6,0.4,5.6,0.4s6.3-0.2,12.7-1.4l0.3,1.8C34.065,55.1,27.565,55.3,27.465,55.3z M25.865,44.3l2.1,3.4
	l2.1-3.5l-2.4-7.2L25.865,44.3z M48.765,48.3c-2.5,0-4.6-2-4.6-4.6s2-4.6,4.6-4.6s4.6,2,4.6,4.6
	C53.265,46.3,51.265,48.3,48.765,48.3z M48.765,41.1c-1.5,0-2.6,1.2-2.6,2.6c0,1.5,1.2,2.6,2.6,2.6c1.5,0,2.6-1.2,2.6-2.6
	C51.365,42.4,50.165,41.1,48.765,41.1z"/>
<path class="st0" d="M51.865,57.2h-5.8l-0.9-2.6c-0.4-0.1-0.7-0.3-1.1-0.4l-2.6,1.4l-4.2-4.1l1.3-2.5c-0.2-0.3-0.3-0.7-0.5-1.1
	l-2.8-0.9v-5.8l2.6-0.9c0.1-0.4,0.3-0.7,0.4-1.1l-1.4-2.6l4.1-4.2l2.5,1.3c0.3-0.2,0.7-0.3,1.1-0.5l0.9-2.8h5.8l0.9,2.6
	c0.4,0.1,0.7,0.3,1.1,0.4l2.6-1.4l4.1,4.1l-1.3,2.5c0.2,0.3,0.3,0.7,0.5,1.1l2.8,0.9v5.8l-2.6,0.9c-0.1,0.4-0.3,0.7-0.4,1.1l1.4,2.6
	l-4,4.3l-2.5-1.3c-0.4,0.2-0.7,0.3-1.1,0.5L51.865,57.2z M47.365,55.3h3.1l0.8-2.4l0.5-0.2c0.6-0.2,1.1-0.4,1.7-0.7l0.5-0.3l2.1,1.1
	l2.1-2.1l-1.2-2.2l0.2-0.4c0.3-0.6,0.5-1.1,0.7-1.7l0.1-0.5l2.3-0.8V42l-2.4-0.8l-0.2-0.5c-0.2-0.6-0.4-1.1-0.7-1.7l-0.3-0.4
	l1.1-2.1l-2.1-2l-2.3,1.1l-0.5-0.2c-0.6-0.3-1.1-0.5-1.7-0.7l-0.4-0.1l-0.8-2.3h-3.1l-0.8,2.4l-0.5,0.2c-0.6,0.2-1.2,0.5-1.7,0.7
	l-0.3,0.3l-2.1-1.2l-2.1,2.1l1.2,2.2l-0.2,0.4c-0.3,0.5-0.5,1.1-0.7,1.7l-0.1,0.5l-2.3,0.8v3.1l2.4,0.8l0.2,0.5
	c0.2,0.6,0.5,1.2,0.7,1.7l0.3,0.5l-1.2,2.1l2.1,2.1l2.2-1.2l0.4,0.2c0.5,0.3,1.1,0.5,1.7,0.7l0.5,0.1L47.365,55.3z M48.765,48.3
	c-2.5,0-4.6-2-4.6-4.6s2-4.6,4.6-4.6s4.6,2,4.6,4.6C53.265,46.3,51.265,48.3,48.765,48.3z M48.765,41.1c-1.5,0-2.6,1.2-2.6,2.6
	c0,1.5,1.2,2.6,2.6,2.6c1.5,0,2.6-1.2,2.6-2.6C51.365,42.4,50.165,41.1,48.765,41.1z"/>
</svg>
