<?xml version="1.0" encoding="utf-8"?>
<!-- Generator: Adobe Illustrator 22.0.0, SVG Export Plug-In . SVG Version: 6.00 Build 0)  -->
<svg version="1.1" id="Шар_1" xmlns="http://www.w3.org/2000/svg" xmlns:xlink="http://www.w3.org/1999/xlink" x="0px" y="0px"
	 viewBox="0 0 24 24" style="enable-background:new 0 0 24 24;" xml:space="preserve">
<style type="text/css">
	.st0{fill:#FFFFFF;}
</style>
<g>
	<path class="st0" d="M16.59,11.6v-1.02h-1.02v1.02h-1.8l0.35,1.02h3.57c-0.34,0.97-0.87,1.9-1.59,2.71
		c-0.01,0.01-0.01,0.01-0.02,0.02c-0.48-0.53-0.87-1.1-1.18-1.71h-0.43l0.7,2.05c0.07,0.09,0.15,0.19,0.23,0.28l-0.1,0.1l0.36,1.05
		l0.42-0.42l0.74,0.75l0.84,0.84l0.39-1.04l-1.29-1.28l0.01-0.02c0.89-0.99,1.52-2.12,1.89-3.33h1.5V11.6H16.59z M13.53,19.25
		L13.78,19h-0.5L13.53,19.25z"/>
</g>
<g>
	<path class="st0" d="M15.17,15.69l0.13,0.38l0.1-0.1C15.32,15.88,15.24,15.78,15.17,15.69z M15.17,15.69l0.13,0.38l0.1-0.1
		C15.32,15.88,15.24,15.78,15.17,15.69z M17.47,19.34l-0.65-1.89l-0.72-2.12l-0.93-2.71l-0.35-1.02L12.56,5l-0.34-1l-1.25-3.66
		C10.9,0.14,10.71,0,10.5,0h-8C1.12,0,0,1.12,0,2.5v15C0,18.88,1.12,20,2.5,20H17c0.05,0,0.11-0.01,0.16-0.03
		C17.42,19.89,17.56,19.6,17.47,19.34z M2.5,19C1.67,19,1,18.33,1,17.5v-15C1,1.67,1.67,1,2.5,1h7.64l3.63,10.6l0.7,2.04l0.7,2.05
		l0.13,0.38l0.36,1.05L16.3,19H2.5z M15.17,15.69l0.13,0.38l0.1-0.1C15.32,15.88,15.24,15.78,15.17,15.69z"/>
</g>
<g>
	<path class="st0" d="M21.5,24h-8c-0.208,0-0.395-0.129-0.468-0.324l-1.5-4c-0.097-0.259,0.034-0.547,0.293-0.644
		c0.258-0.097,0.546,0.034,0.643,0.292L13.847,23H21.5c0.827,0,1.5-0.673,1.5-1.5v-15C23,5.673,22.327,5,21.5,5H12
		c-0.276,0-0.5-0.224-0.5-0.5S11.724,4,12,4h9.5C22.878,4,24,5.122,24,6.5v15C24,22.878,22.878,24,21.5,24z"/>
</g>
<g>
	<path class="st0" d="M0,0L0,0z"/>
</g>
<g>
	<path class="st0" d="M0,0L0,0z"/>
</g>
<g>
	<path class="st0" d="M0,0L0,0z"/>
</g>
<g>
	<path class="st0" d="M4.053,13.783l2.312-7.857c0.092-0.285,0.286-0.427,0.581-0.427c0.286,0,0.466,0.121,0.539,0.362l2.29,7.977
		c0.018,0.06,0.027,0.116,0.027,0.171c0,0.16-0.055,0.295-0.164,0.407c-0.109,0.111-0.234,0.167-0.376,0.167
		c-0.3,0-0.492-0.139-0.574-0.417l-0.454-1.558H5.605l-0.5,1.669c-0.014,0.072-0.071,0.142-0.171,0.207
		c-0.101,0.066-0.211,0.099-0.33,0.099c-0.169,0-0.309-0.057-0.419-0.171c-0.11-0.113-0.165-0.253-0.165-0.417
		C4.019,13.927,4.03,13.856,4.053,13.783z M6.938,8.158l-0.985,3.288h1.943L6.938,8.158z"/>
</g>
</svg>
