<?xml version="1.0" encoding="utf-8"?>
<!-- Generator: Adobe Illustrator 22.0.0, SVG Export Plug-In . SVG Version: 6.00 Build 0)  -->
<svg version="1.1" id="Шар_1" xmlns="http://www.w3.org/2000/svg" xmlns:xlink="http://www.w3.org/1999/xlink" x="0px" y="0px"
	 viewBox="0 0 340.909 120" style="enable-background:new 0 0 340.909 120;" xml:space="preserve">
<style type="text/css">
	.st0{fill:#172141;}
</style>
<g>
	<g>
		<g>
			<circle class="st0" cx="5.465" cy="53.269" r="5.465"/>
		</g>
		<g>
			<path class="st0" d="M50.722,114.55c0,3.006-2.444,5.45-5.465,5.45c-3.006,0-5.45-2.444-5.45-5.45
				c0-3.021,2.444-5.465,5.45-5.465C48.278,109.086,50.722,111.529,50.722,114.55z"/>
		</g>
		<g>
			<circle class="st0" cx="81.644" cy="31.055" r="5.465"/>
		</g>
		<g>
			<path class="st0" d="M81.644,83.066c0,3.021-2.444,5.465-5.465,5.465c-3.021,0-5.465-2.444-5.465-5.465
				c0-3.006,2.444-5.45,5.465-5.45C79.2,77.616,81.644,80.059,81.644,83.066z"/>
		</g>
		<g>
			<path class="st0" d="M47.538,4.769c0,2.636-2.133,4.769-4.769,4.769c-2.636,0-4.769-2.132-4.769-4.769S40.133,0,42.769,0
				C45.405,0,47.538,2.132,47.538,4.769z"/>
		</g>
		<g>
			<path class="st0" d="M30.404,40.03c0,2.118-1.718,3.85-3.836,3.85s-3.836-1.733-3.836-3.85s1.718-3.836,3.836-3.836
				S30.404,37.912,30.404,40.03z"/>
		</g>
		<g>
			<path class="st0" d="M22.17,47.804c0,1.822-1.466,3.288-3.288,3.288c-1.807,0-3.288-1.466-3.288-3.288
				c0-1.807,1.481-3.288,3.288-3.288C20.703,44.517,22.17,45.998,22.17,47.804z"/>
		</g>
		<g>
			<path class="st0" d="M49.063,99.637c0,2.103-1.703,3.806-3.806,3.806c-2.088,0-3.791-1.703-3.791-3.806
				c0-2.088,1.703-3.791,3.791-3.791C47.36,95.846,49.063,97.549,49.063,99.637z"/>
		</g>
	</g>
	<path class="st0" d="M75.069,76.224c-1.081,0.178-2.088,0.607-2.947,1.229L43.821,10.914c1.096-0.163,2.088-0.637,2.903-1.318
		L75.069,76.224z"/>
	<path class="st0" d="M76.579,26.316c-0.74,0.785-1.303,1.733-1.599,2.799L47.375,8.96c0.726-0.785,1.259-1.762,1.496-2.843
		L76.579,26.316z"/>
	<path class="st0" d="M41.94,10.959l-11.67,25.25c-0.77-0.74-1.747-1.259-2.858-1.422L38.993,9.73
		C39.837,10.381,40.844,10.811,41.94,10.959z"/>
	<path class="st0" d="M70.729,87.36L50.485,98.852c-0.163-1.111-0.681-2.103-1.437-2.858l20.333-11.522
		C69.604,85.539,70.063,86.531,70.729,87.36z"/>
	<path class="st0" d="M24.243,44.828l-1.037,0.977c-0.459-0.992-1.244-1.792-2.221-2.281l0.948-0.903
		C22.451,43.569,23.265,44.339,24.243,44.828z"/>
	<path class="st0" d="M46.679,104.732l-0.03,3.021c-0.444-0.104-0.918-0.148-1.392-0.148c-0.622,0-1.229,0.089-1.807,0.252
		l0.044-3.243c0.548,0.207,1.14,0.311,1.762,0.311C45.746,104.924,46.22,104.85,46.679,104.732z"/>
	<path class="st0" d="M15.357,51.003l-3.006,1.363c-0.148-1.096-0.548-2.103-1.14-2.977l2.917-1.318
		C14.187,49.197,14.632,50.218,15.357,51.003z"/>
	<path class="st0" d="M82.547,37.942L79.2,76.831c-0.918-0.444-1.94-0.696-3.021-0.696h-0.118l3.317-38.519
		c0.711,0.252,1.466,0.385,2.266,0.385C81.955,38.001,82.251,37.986,82.547,37.942z"/>
</g>
<g>
	<g>
		<path class="st0" d="M104.511,75.58v-56.4h12.48V65.1h25.36v10.48H104.511z"/>
		<path class="st0" d="M150.029,75.58v-56.4h12.48v56.4H150.029z"/>
		<path class="st0" d="M173.949,75.58v-56.4h26c6.187,0,10.96,1.293,14.32,3.88c3.36,2.587,5.04,6.147,5.04,10.68
			c0,3.414-1,6.293-3,8.64c-2,2.348-4.733,3.92-8.2,4.72v-1.2c4.053,0.588,7.187,2.08,9.4,4.48c2.212,2.4,3.319,5.52,3.319,9.36
			c0,4.96-1.773,8.84-5.319,11.64c-3.548,2.8-8.44,4.2-14.681,4.2H173.949z M185.869,42.3h11.84c3.253,0,5.667-0.573,7.24-1.72
			c1.572-1.146,2.36-2.866,2.36-5.16c0-2.346-0.788-4.092-2.36-5.24c-1.573-1.146-3.987-1.72-7.24-1.72h-11.84V42.3z
			 M185.869,66.221h13.441c3.093,0,5.466-0.561,7.12-1.681c1.652-1.12,2.479-2.96,2.479-5.521c0-2.666-0.827-4.572-2.479-5.719
			c-1.654-1.146-4.027-1.72-7.12-1.72h-13.441V66.221z"/>
		<path class="st0" d="M229.629,75.58v-56.4h25.601c6.346,0,11.239,1.507,14.68,4.52c3.44,3.014,5.16,7.214,5.16,12.6
			c0,3.52-0.774,6.547-2.32,9.08c-1.548,2.534-3.787,4.48-6.72,5.84c-2.934,1.36-6.4,2.04-10.4,2.04l0.88-1.76h3.36
			c2.293,0,4.347,0.614,6.16,1.84c1.813,1.228,3.28,2.988,4.399,5.28l8.4,16.96h-13.76l-8.72-18.16c-0.641-1.492-1.641-2.492-3-3
			c-1.36-0.506-2.921-0.76-4.681-0.76h-6.56v21.92H229.629z M242.11,44.54h10.96c3.252,0,5.732-0.666,7.439-2
			c1.707-1.333,2.561-3.306,2.561-5.92c0-2.612-0.854-4.56-2.561-5.84c-1.707-1.28-4.188-1.92-7.439-1.92h-10.96V44.54z"/>
		<path class="st0" d="M278.59,75.58l25.92-56.4h10.32l26.079,56.4h-12.56l-6.8-15.68l4.88,3.439h-33.521l4.961-3.439l-6.801,15.68
			H278.59z M309.55,32.22l-10.32,24.64l-2.24-3.2h25.2l-1.76,3.2l-10.56-24.64H309.55z"/>
	</g>
	<g>
		<path class="st0" d="M109.271,87.897h-4.032v-2.376h10.98v2.376h-4.032v10.224h-2.916V87.897z"/>
		<path class="st0" d="M121.412,88.653c0.57-0.24,1.227-0.36,1.971-0.36v2.592c-0.313-0.023-0.522-0.036-0.63-0.036
			c-0.804,0-1.434,0.226-1.89,0.676c-0.456,0.449-0.684,1.125-0.684,2.024v4.572h-2.808v-9.684h2.682v1.277
			C120.389,89.247,120.843,88.893,121.412,88.653z"/>
		<path class="st0" d="M132.366,89.364c0.804,0.714,1.206,1.791,1.206,3.23v5.526h-2.628v-1.206c-0.528,0.9-1.512,1.35-2.952,1.35
			c-0.744,0-1.389-0.126-1.935-0.378c-0.546-0.252-0.963-0.6-1.251-1.044c-0.288-0.443-0.432-0.947-0.432-1.512
			c0-0.9,0.339-1.607,1.017-2.124c0.678-0.516,1.725-0.774,3.141-0.774h2.232c0-0.611-0.187-1.082-0.558-1.412
			c-0.372-0.33-0.93-0.495-1.674-0.495c-0.516,0-1.023,0.081-1.521,0.243c-0.499,0.161-0.921,0.381-1.269,0.656l-1.008-1.962
			c0.528-0.372,1.161-0.659,1.899-0.864c0.738-0.203,1.497-0.306,2.277-0.306C130.409,88.293,131.561,88.65,132.366,89.364z
			 M129.971,96.042c0.372-0.222,0.636-0.549,0.792-0.98v-0.99h-1.926c-1.152,0-1.728,0.378-1.728,1.134
			c0,0.36,0.141,0.646,0.423,0.855c0.282,0.21,0.668,0.314,1.161,0.314C129.173,96.375,129.599,96.265,129.971,96.042z"/>
		<path class="st0" d="M144.902,89.373c0.738,0.72,1.107,1.788,1.107,3.204v5.544h-2.808v-5.112c0-0.768-0.168-1.341-0.504-1.719
			s-0.822-0.567-1.458-0.567c-0.708,0-1.272,0.22-1.692,0.657c-0.42,0.438-0.63,1.089-0.63,1.953v4.788h-2.808v-9.684h2.682v1.134
			c0.372-0.408,0.834-0.723,1.386-0.945c0.552-0.222,1.158-0.333,1.818-0.333C143.195,88.293,144.164,88.653,144.902,89.373z"/>
		<path class="st0" d="M149.447,97.968c-0.768-0.197-1.38-0.446-1.836-0.747l0.936-2.016c0.432,0.276,0.954,0.501,1.566,0.675
			c0.612,0.174,1.212,0.261,1.8,0.261c1.188,0,1.782-0.293,1.782-0.882c0-0.275-0.162-0.474-0.486-0.594s-0.822-0.222-1.494-0.306
			c-0.792-0.12-1.446-0.258-1.962-0.414c-0.516-0.156-0.963-0.433-1.341-0.828c-0.378-0.396-0.567-0.96-0.567-1.692
			c0-0.611,0.177-1.154,0.531-1.629c0.354-0.474,0.87-0.843,1.548-1.106c0.678-0.265,1.479-0.396,2.403-0.396
			c0.684,0,1.365,0.075,2.043,0.226c0.678,0.149,1.239,0.356,1.683,0.62l-0.936,1.998c-0.853-0.479-1.782-0.72-2.79-0.72
			c-0.601,0-1.05,0.084-1.35,0.252c-0.3,0.168-0.45,0.385-0.45,0.648c0,0.3,0.162,0.51,0.486,0.63
			c0.324,0.12,0.84,0.233,1.548,0.342c0.792,0.132,1.44,0.273,1.944,0.423c0.504,0.15,0.942,0.423,1.314,0.819
			c0.372,0.396,0.558,0.948,0.558,1.656c0,0.6-0.18,1.134-0.54,1.602s-0.885,0.831-1.575,1.089c-0.69,0.258-1.509,0.387-2.457,0.387
			C151.001,98.265,150.215,98.166,149.447,97.968z"/>
		<path class="st0" d="M158.105,84.765h2.808v13.356h-2.808V84.765z"/>
		<path class="st0" d="M170.885,89.364c0.804,0.714,1.206,1.791,1.206,3.23v5.526h-2.628v-1.206c-0.528,0.9-1.512,1.35-2.952,1.35
			c-0.744,0-1.389-0.126-1.935-0.378c-0.546-0.252-0.963-0.6-1.251-1.044c-0.288-0.443-0.432-0.947-0.432-1.512
			c0-0.9,0.339-1.607,1.017-2.124c0.678-0.516,1.725-0.774,3.141-0.774h2.232c0-0.611-0.187-1.082-0.558-1.412
			c-0.372-0.33-0.93-0.495-1.674-0.495c-0.516,0-1.023,0.081-1.521,0.243c-0.499,0.161-0.921,0.381-1.269,0.656l-1.008-1.962
			c0.528-0.372,1.161-0.659,1.899-0.864c0.738-0.203,1.497-0.306,2.277-0.306C168.929,88.293,170.081,88.65,170.885,89.364z
			 M168.491,96.042c0.372-0.222,0.636-0.549,0.792-0.98v-0.99h-1.926c-1.152,0-1.728,0.378-1.728,1.134
			c0,0.36,0.141,0.646,0.423,0.855c0.282,0.21,0.668,0.314,1.161,0.314C167.693,96.375,168.119,96.265,168.491,96.042z"/>
		<path class="st0" d="M180.875,97.653c-0.276,0.204-0.615,0.357-1.017,0.459s-0.825,0.152-1.269,0.152
			c-1.152,0-2.043-0.294-2.673-0.882s-0.945-1.451-0.945-2.592v-3.978h-1.494v-2.16h1.494v-2.358h2.808v2.358h2.412v2.16h-2.412
			v3.941c0,0.408,0.105,0.724,0.315,0.945c0.209,0.222,0.506,0.333,0.891,0.333c0.444,0,0.822-0.12,1.134-0.36L180.875,97.653z"/>
		<path class="st0" d="M182.603,86.637c-0.324-0.3-0.486-0.672-0.486-1.115c0-0.444,0.162-0.816,0.486-1.116
			c0.324-0.3,0.744-0.45,1.26-0.45c0.516,0,0.936,0.144,1.26,0.432s0.486,0.648,0.486,1.08c0,0.469-0.162,0.855-0.486,1.161
			c-0.324,0.307-0.744,0.459-1.26,0.459C183.347,87.087,182.927,86.937,182.603,86.637z M182.459,88.437h2.808v9.684h-2.808V88.437z
			"/>
		<path class="st0" d="M189.74,97.626c-0.811-0.426-1.443-1.017-1.899-1.772c-0.456-0.757-0.684-1.614-0.684-2.574
			s0.228-1.818,0.684-2.574s1.089-1.347,1.899-1.773c0.81-0.426,1.725-0.639,2.745-0.639c1.02,0,1.932,0.213,2.735,0.639
			c0.804,0.427,1.435,1.018,1.891,1.773s0.684,1.614,0.684,2.574s-0.228,1.817-0.684,2.574c-0.456,0.756-1.087,1.347-1.891,1.772
			s-1.716,0.639-2.735,0.639C191.464,98.265,190.549,98.052,189.74,97.626z M194.257,95.232c0.462-0.486,0.693-1.137,0.693-1.953
			s-0.231-1.467-0.693-1.953s-1.053-0.729-1.772-0.729c-0.721,0-1.314,0.243-1.782,0.729S190,92.463,190,93.279
			s0.234,1.467,0.702,1.953c0.468,0.485,1.062,0.729,1.782,0.729C193.204,95.961,193.795,95.718,194.257,95.232z"/>
		<path class="st0" d="M208.459,89.373c0.738,0.72,1.107,1.788,1.107,3.204v5.544h-2.809v-5.112c0-0.768-0.168-1.341-0.504-1.719
			s-0.822-0.567-1.458-0.567c-0.708,0-1.271,0.22-1.691,0.657c-0.421,0.438-0.631,1.089-0.631,1.953v4.788h-2.808v-9.684h2.682
			v1.134c0.372-0.408,0.834-0.723,1.387-0.945c0.552-0.222,1.157-0.333,1.817-0.333C206.752,88.293,207.721,88.653,208.459,89.373z"
			/>
		<path class="st0" d="M225.695,95.421h-5.85l-1.116,2.7h-2.988l5.616-12.6h2.88l5.634,12.6h-3.06L225.695,95.421z M224.777,93.207
			l-1.998-4.824l-1.998,4.824H224.777z"/>
		<path class="st0" d="M240.886,88.437v8.063c0,1.776-0.462,3.096-1.386,3.96c-0.925,0.864-2.274,1.296-4.051,1.296
			c-0.936,0-1.824-0.114-2.664-0.342c-0.84-0.229-1.536-0.558-2.088-0.99l1.116-2.016c0.408,0.336,0.924,0.603,1.548,0.801
			s1.248,0.297,1.872,0.297c0.973,0,1.689-0.219,2.151-0.657c0.462-0.438,0.692-1.101,0.692-1.988v-0.414
			c-0.731,0.804-1.752,1.206-3.06,1.206c-0.888,0-1.701-0.195-2.439-0.585c-0.737-0.39-1.322-0.939-1.755-1.647
			c-0.432-0.708-0.647-1.523-0.647-2.448c0-0.924,0.216-1.739,0.647-2.447c0.433-0.708,1.018-1.257,1.755-1.647
			c0.738-0.39,1.552-0.585,2.439-0.585c1.404,0,2.472,0.462,3.204,1.386v-1.241H240.886z M237.403,94.692
			c0.475-0.438,0.711-1.011,0.711-1.72c0-0.707-0.236-1.28-0.711-1.719c-0.474-0.438-1.083-0.657-1.827-0.657
			s-1.355,0.22-1.836,0.657c-0.479,0.438-0.72,1.012-0.72,1.719c0,0.709,0.24,1.281,0.72,1.72c0.48,0.438,1.092,0.656,1.836,0.656
			S236.929,95.13,237.403,94.692z"/>
		<path class="st0" d="M252.928,94.071h-7.325c0.132,0.6,0.443,1.074,0.936,1.422s1.104,0.521,1.836,0.521
			c0.504,0,0.951-0.074,1.341-0.225c0.391-0.149,0.753-0.387,1.089-0.711l1.494,1.62c-0.912,1.044-2.244,1.565-3.996,1.565
			c-1.092,0-2.058-0.213-2.897-0.639s-1.488-1.017-1.944-1.772c-0.456-0.757-0.684-1.614-0.684-2.574
			c0-0.948,0.225-1.803,0.675-2.565c0.45-0.762,1.068-1.355,1.854-1.782c0.785-0.426,1.664-0.639,2.637-0.639
			c0.947,0,1.806,0.204,2.574,0.612c0.768,0.408,1.37,0.993,1.809,1.755c0.438,0.762,0.657,1.646,0.657,2.655
			C252.983,93.351,252.964,93.603,252.928,94.071z M246.359,90.957c-0.433,0.36-0.696,0.853-0.792,1.476h4.77
			c-0.096-0.611-0.359-1.101-0.792-1.467c-0.432-0.365-0.96-0.549-1.584-0.549C247.324,90.417,246.79,90.597,246.359,90.957z"/>
		<path class="st0" d="M263.647,89.373c0.738,0.72,1.107,1.788,1.107,3.204v5.544h-2.809v-5.112c0-0.768-0.168-1.341-0.504-1.719
			s-0.822-0.567-1.458-0.567c-0.708,0-1.271,0.22-1.691,0.657c-0.421,0.438-0.631,1.089-0.631,1.953v4.788h-2.808v-9.684h2.682
			v1.134c0.372-0.408,0.834-0.723,1.387-0.945c0.552-0.222,1.157-0.333,1.817-0.333C261.94,88.293,262.908,88.653,263.647,89.373z"
			/>
		<path class="st0" d="M269.299,97.626c-0.822-0.426-1.465-1.017-1.927-1.772c-0.462-0.757-0.692-1.614-0.692-2.574
			s0.23-1.818,0.692-2.574s1.104-1.347,1.927-1.773c0.821-0.426,1.748-0.639,2.78-0.639c1.021,0,1.911,0.213,2.674,0.639
			c0.762,0.427,1.316,1.035,1.665,1.827l-2.179,1.17c-0.504-0.888-1.229-1.332-2.178-1.332c-0.732,0-1.338,0.24-1.818,0.721
			c-0.479,0.479-0.72,1.134-0.72,1.962s0.24,1.482,0.72,1.962c0.48,0.479,1.086,0.72,1.818,0.72c0.96,0,1.686-0.443,2.178-1.332
			l2.179,1.188c-0.349,0.768-0.903,1.368-1.665,1.8c-0.763,0.432-1.653,0.647-2.674,0.647
			C271.047,98.265,270.12,98.052,269.299,97.626z"/>
		<path class="st0" d="M287.506,88.437l-4.374,10.277c-0.444,1.116-0.993,1.902-1.647,2.358s-1.442,0.684-2.367,0.684
			c-0.504,0-1.002-0.078-1.493-0.233c-0.492-0.156-0.895-0.372-1.206-0.648l1.025-1.998c0.216,0.192,0.465,0.342,0.747,0.45
			s0.562,0.162,0.837,0.162c0.384,0,0.696-0.093,0.937-0.279c0.239-0.187,0.456-0.495,0.647-0.927l0.036-0.09l-4.193-9.756h2.897
			l2.718,6.569l2.736-6.569H287.506z"/>
	</g>
</g>
</svg>
